<?xml version="1.0" standalone="no"?>
<!DOCTYPE svg PUBLIC "-//W3C//DTD SVG 20010904//EN"
 "http://www.w3.org/TR/2001/REC-SVG-20010904/DTD/svg10.dtd">
<svg version="1.0" xmlns="http://www.w3.org/2000/svg"
 width="431.000000pt" height="431.000000pt" viewBox="0 0 431.000000 431.000000"
 preserveAspectRatio="xMidYMid meet">
<metadata>
Created by potrace 1.11, written by Peter Selinger 2001-2013
</metadata>
<g transform="translate(0.000000,431.000000) scale(0.100000,-0.100000)"
fill="#000000" stroke="none">
<path d="M500 2785 c-216 -48 -404 -223 -473 -443 -30 -93 -30 -268 0 -364 62
-199 215 -357 419 -429 78 -28 243 -34 334 -14 215 49 400 220 471 436 26 81
33 237 13 329 -37 175 -174 350 -334 428 -47 23 -113 48 -147 55 -82 19 -203
19 -283 2z"/>
<path d="M1903 2598 c-22 -6 -33 -16 -38 -36 -4 -15 -7 -175 -8 -357 l0 -330
67 -3 66 -3 -1 297 c0 163 2 299 5 301 8 8 444 6 456 -2 13 -8 13 -114 -1
-153 -20 -59 -46 -67 -224 -69 -88 -1 -165 -2 -171 -2 -6 -1 -10 -27 -10 -66
l1 -65 50 0 c44 -1 55 -5 95 -41 73 -66 92 -82 155 -134 33 -28 62 -53 63 -57
2 -5 52 -8 110 -8 86 1 104 3 91 13 -19 14 -115 97 -173 148 -23 20 -52 46
-66 57 l-25 20 40 7 c96 18 176 86 195 167 7 27 10 88 8 137 -3 71 -8 93 -27
119 -44 63 -57 65 -357 67 -149 0 -285 -3 -301 -7z"/>
<path d="M3412 2599 c-44 -16 -44 -23 -44 -371 1 -183 1 -339 2 -345 0 -9 20
-13 65 -13 l65 0 -1 296 c0 162 2 298 5 301 2 3 122 5 265 5 l261 -1 1 30 c1
16 1 40 1 54 0 14 0 31 -1 38 -1 9 -68 12 -301 12 -165 0 -309 -3 -318 -6z"/>
<path d="M2865 2420 c-132 -15 -172 -82 -169 -291 2 -139 11 -168 64 -213 48
-40 93 -47 296 -44 l188 3 -1 58 c0 32 -3 60 -6 64 -3 3 -88 5 -189 5 -141 0
-187 3 -202 14 -17 12 -19 27 -19 128 -1 80 3 119 12 130 11 14 43 16 207 16
178 0 194 1 195 18 6 108 5 112 -21 113 -136 4 -315 3 -355 -1z"/>
<path d="M3572 2299 c-14 -5 -17 -19 -17 -68 l0 -61 209 2 210 3 1 50 c3 84
14 80 -198 80 -103 0 -196 -3 -205 -6z"/>
</g>
</svg>
